<svg width="900" height="620" viewBox="0 0 900 620" fill="none" xmlns="http://www.w3.org/2000/svg">
  <rect width="900" height="620" rx="28" fill="#FFFFFF"/>
  <path d="M83 431C183 323 268 351 366 267C464 183 553 128 690 161C774 181 807 244 821 302" stroke="#00B4D8" stroke-width="18" stroke-linecap="round" stroke-dasharray="3 34"/>
  <path d="M78 476C222 390 319 414 421 317C523 220 626 244 804 209" stroke="#0B3C5D" stroke-width="3" stroke-linecap="round" stroke-dasharray="12 16"/>
  <g fill="#FFC857" stroke="#0B3C5D" stroke-width="5">
    <circle cx="87" cy="431" r="19"/>
    <circle cx="231" cy="355" r="19"/>
    <circle cx="367" cy="267" r="19"/>
    <circle cx="512" cy="190" r="19"/>
    <circle cx="690" cy="161" r="19"/>
    <circle cx="821" cy="302" r="19"/>
  </g>
  <path d="M0 510C104 482 178 532 288 506C398 480 473 446 584 484C695 522 791 489 900 442V620H0V510Z" fill="#F4EBD0"/>
</svg>
